<?xml version="1.0" encoding="UTF-8"?>
<svg height="128px" viewBox="0 0 128 128" width="128px" xmlns="http://www.w3.org/2000/svg">
    <path d="m 37.414062 32.578125 h 53.171876 c 2.671874 0 4.835937 2.164063 4.835937 4.835937 v 53.171876 c 0 2.671874 -2.164063 4.835937 -4.835937 4.835937 h -53.171876 c -2.671874 0 -4.835937 -2.164063 -4.835937 -4.835937 v -53.171876 c 0 -2.671874 2.164063 -4.835937 4.835937 -4.835937 z m 0 0" fill="#3d3846"/>
    <path d="m 19.441406 12.019531 c -4.113281 0 -7.425781 3.3125 -7.425781 7.425781 v 25.25 c 0 1.09375 0.886719 1.980469 1.980469 1.980469 h 31.933594 c 0.410156 0 0.742187 -0.332031 0.742187 -0.742187 v -31.933594 c 0 -1.097656 -0.882813 -1.980469 -1.980469 -1.980469 z m 0 0" fill="#c01c28"/>
    <path d="m 21 12.019531 c -3.878906 0 -7 3.019531 -7 6.769531 v 23.023438 c 0 1 0.832031 1.804688 1.867188 1.804688 h 30.105468 c 0.386719 0 0.699219 -0.300782 0.699219 -0.675782 v -29.117187 c 0 -1 -0.832031 -1.804688 -1.867187 -1.804688 z m 0 0" fill="#f66151"/>
    <path d="m 13.839844 46.675781 c -1.011719 0 -1.824219 0.90625 -1.824219 2.035157 v 30.582031 c 0 1.128906 0.8125 2.035156 1.824219 2.035156 h 29.132812 c 2.042969 0 3.699219 -7.757813 3.699219 -17.324219 c 0 -9.570312 -1.65625 -17.328125 -3.699219 -17.328125 z m 0 0" fill="#e5a50a"/>
    <path d="m 15.71875 46.675781 c -0.953125 0 -1.71875 0.828125 -1.71875 1.855469 v 27.882812 c 0 1.027344 0.765625 1.859376 1.71875 1.859376 h 27.464844 c 1.925781 -0.003907 3.488281 -7.074219 3.488281 -15.800782 c 0 -8.726562 -1.5625 -15.796875 -3.488281 -15.796875 z m 0 0" fill="#f8e45c"/>
    <path d="m 13.996094 81.328125 c -1.09375 0 -1.980469 0.886719 -1.980469 1.980469 v 25.25 c 0 4.113281 3.3125 7.425781 7.425781 7.425781 h 25.25 c 1.097656 0 1.980469 -0.882813 1.980469 -1.980469 v -31.933594 c 0 -0.410156 -0.332031 -0.742187 -0.742187 -0.742187 z m 0 0" fill="#c0bfbc"/>
    <path d="m 15.867188 81.328125 c -1.035157 0 -1.867188 0.804687 -1.867188 1.804687 v 23.023438 c 0 3.75 3.121094 6.769531 7 6.769531 h 23.804688 c 1.035156 0 1.867187 -0.804687 1.867187 -1.804687 v -29.113282 c 0 -0.375 -0.3125 -0.679687 -0.699219 -0.679687 z m 0 0" fill="#ffffff"/>
    <path d="m 81.328125 13.8125 c 0 -1.003906 -0.910156 -1.8125 -2.039063 -1.8125 h -30.578124 c -1.128907 0 -2.039063 0.808594 -2.039063 1.8125 v 28.976562 c 0 2.03125 7.757813 3.679688 17.328125 3.679688 s 17.328125 -1.648438 17.328125 -3.679688 z m 0 0" fill="#1a5fb4"/>
    <path d="m 81.328125 13.664062 c 0 -0.921874 -0.867187 -1.664062 -1.941406 -1.664062 h -29.101563 c -1.074218 0 -1.941406 0.742188 -1.941406 1.664062 v 26.589844 c 0 1.867188 7.382812 3.378906 16.492188 3.378906 c 9.109374 0 16.492187 -1.511718 16.492187 -3.378906 z m 0 0" fill="#62a0ea"/>
    <path d="m 115.984375 19.445312 c 0 -4.113281 -3.3125 -7.425781 -7.425781 -7.425781 h -25.25 c -1.097656 0 -1.980469 0.882813 -1.980469 1.980469 v 31.933594 c 0 0.410156 0.332031 0.742187 0.742187 0.742187 h 31.933594 c 1.09375 0 1.980469 -0.886719 1.980469 -1.980469 z m 0 0" fill="#26a269"/>
    <path d="m 115.984375 18.789062 c 0 -3.75 -3.15625 -6.769531 -7.070313 -6.769531 h -24.03125 c -1.042968 0 -1.882812 0.804688 -1.882812 1.804688 v 29.113281 c 0 0.378906 0.316406 0.679688 0.707031 0.679688 h 30.390625 c 1.046875 0 1.886719 -0.804688 1.886719 -1.808594 z m 0 0" fill="#57e389"/>
    <path d="m 114.160156 81.328125 c 1.011719 0 1.824219 -0.90625 1.824219 -2.035156 v -30.582031 c 0 -1.128907 -0.8125 -2.035157 -1.824219 -2.035157 h -29.132812 c -2.042969 0 -3.699219 7.757813 -3.699219 17.328125 c 0 9.566406 1.65625 17.324219 3.699219 17.324219 z m 0 0" fill="#c64600"/>
    <path d="m 114.25 78.273438 c 0.960938 0 1.734375 -0.832032 1.734375 -1.859376 v -27.882812 c 0 -1.027344 -0.773437 -1.855469 -1.734375 -1.855469 h -27.730469 c -1.945312 0 -3.519531 7.070313 -3.519531 15.796875 c 0 8.726563 1.574219 15.796875 3.519531 15.800782 z m 0 0" fill="#ffa348"/>
    <path d="m 108.558594 115.984375 c 4.113281 0 7.425781 -3.3125 7.425781 -7.425781 v -25.25 c 0 -1.09375 -0.886719 -1.980469 -1.980469 -1.980469 h -31.933594 c -0.410156 0 -0.742187 0.332031 -0.742187 0.742187 v 31.933594 c 0 1.097656 0.882813 1.980469 1.980469 1.980469 z m 0 0" fill="#c01c28"/>
    <path d="m 108.914062 112.925781 c 3.917969 0 7.070313 -3.019531 7.070313 -6.769531 v -23.023438 c 0 -1 -0.84375 -1.804687 -1.886719 -1.804687 h -30.390625 c -0.390625 0 -0.707031 0.304687 -0.707031 0.679687 v 29.113282 c 0 1 0.839844 1.804687 1.886719 1.804687 z m 0 0" fill="#f66151"/>
    <path d="m 46.671875 114.164062 c 0 1.007813 0.910156 1.820313 2.039063 1.820313 h 30.578124 c 1.128907 0 2.039063 -0.8125 2.039063 -1.820313 v -29.136718 c 0 -2.042969 -7.757813 -3.699219 -17.328125 -3.699219 s -17.328125 1.65625 -17.328125 3.699219 z m 0 0" fill="#e5a50a"/>
    <path d="m 49 111.265625 c 0 0.921875 0.847656 1.660156 1.902344 1.660156 h 28.523437 c 1.054688 0 1.902344 -0.738281 1.902344 -1.660156 v -26.5625 c 0 -1.863281 -7.238281 -3.375 -16.164063 -3.375 c -8.925781 0 -16.164062 1.511719 -16.164062 3.375 z m 0 0" fill="#f8e45c"/>
    <path d="m 53 46.457031 h 22 c 3.613281 0 6.542969 2.929688 6.542969 6.542969 v 22 c 0 3.613281 -2.929688 6.542969 -6.542969 6.542969 h -22 c -3.613281 0 -6.542969 -2.929688 -6.542969 -6.542969 v -22 c 0 -3.613281 2.929688 -6.542969 6.542969 -6.542969 z m 0 0" fill="#26a269"/>
    <path d="m 54.71875 46.457031 h 20.890625 c 3.277344 0 5.933594 2.65625 5.933594 5.933594 v 19.949219 c 0 3.277344 -2.65625 5.933594 -5.933594 5.933594 h -20.890625 c -3.277344 0 -5.933594 -2.65625 -5.933594 -5.933594 v -19.949219 c 0 -3.277344 2.65625 -5.933594 5.933594 -5.933594 z m 0 0" fill="#57e389"/>
</svg>
